#!OML:ASF F:\VICON\USERDATA\INSTALL\rory3\rory3.ASF
:FULLY-SPECIFIED
:DEGREES
3430
root 0.0191722 14.6906 -1.95493 6.03811 8.90324 1.41498
lowerback 36.5743 1.11926 0.579701
upperback 7.66872 1.73975 0.370426
thorax -9.65318 0.826929 -0.600913
lowerneck -10.1217 -11.6457 -15.6362
upperneck -13.6327 -13.0215 23.0836
head 0.509835 -6.29934 9.03791
rclavicle 2.18663e-014 -1.74931e-014
rhumerus 17.797 5.67942 -54.4942
rradius 112.093
rwrist 3.24053
rhand 18.0709 5.91287
rfingers 7.12502
rthumb 42.734 -18.4264
lclavicle 2.18663e-014 -1.74931e-014
lhumerus 31.9045 -24.7023 65.0115
lradius 95.4203
lwrist -0.579662
lhand -4.6908 21.7469
lfingers 7.12502
lthumb 21.0905 50.6199
rfemur -37.8048 -5.32778 14.9176
rtibia 60.1014
rfoot -21.9284 -8.24561
rtoes -20.6651
lfemur -39.6988 -8.62529 -15.6066
ltibia 54.8923
lfoot -15.6477 -1.82133
ltoes -16.682
3431
root 0.0195468 14.6938 -1.95051 6.06405 8.86473 1.48904
lowerback 36.5552 1.12796 0.372313
upperback 7.58487 1.66673 0.310543
thorax -9.74418 0.7958 -0.528079
lowerneck -9.77469 -11.7342 -15.8148
upperneck -13.7305 -13.1623 23.2078
head 0.479289 -6.38762 9.10981
rclavicle 3.18055e-015 1.03368e-014
rhumerus 18.0709 5.75859 -54.3346
rradius 112.04
rwrist 3.32069
rhand 17.9105 5.84148
rfingers 7.12502
rthumb 42.5838 -18.5499
lclavicle 3.18055e-015 1.03368e-014
lhumerus 31.6538 -24.7286 64.9575
lradius 95.424
lwrist -0.526004
lhand -4.72787 21.7622
lfingers 7.12502
lthumb 21.0549 50.6392
rfemur -37.7398 -5.32258 14.8343
rtibia 60.0591
rfoot -21.9522 -8.06302
rtoes -19.8597
lfemur -39.6457 -8.63951 -15.6822
ltibia 54.8176
lfoot -15.6575 -1.80622
ltoes -16.7431
3432
root 0.0205975 14.698 -1.94506 6.10706 8.83593 1.54856
lowerback 36.4773 1.00153 0.409909
upperback 7.54287 1.48801 0.0281997
thorax -9.75605 0.714944 -0.778084
lowerneck -9.49872 -11.8516 -15.8743
upperneck -13.8066 -13.342 23.5072
head 0.485462 -6.50002 9.20878
rclavicle -1.19271e-015 1.35174e-014
rhumerus 18.3541 5.77535 -54.5327
rradius 111.945
rwrist 3.48483
rhand 17.703 5.84399
rfingers 7.12502
rthumb 42.3896 -18.6142
lclavicle -1.19271e-015 1.35174e-014
lhumerus 31.4923 -24.7853 64.5049
lradius 95.494
lwrist -0.474251
lhand -4.78942 21.7637
lfingers 7.12502
lthumb 20.9957 50.6473
rfemur -37.7278 -5.31655 14.7694
rtibia 59.9672
rfoot -21.9949 -8.17478
rtoes -20.3886
lfemur -39.6105 -8.64954 -15.745
ltibia 54.7457
lfoot -15.6739 -1.79124
ltoes -16.6972
3433
root 0.021644 14.7043 -1.93997 6.18378 8.79372 1.50532
lowerback 36.3166 1.0021 0.285073
upperback 7.52531 1.43559 -0.0220596
thorax -9.71984 0.693154 -0.74341
lowerneck -9.27341 -12.0085 -15.9779
upperneck -13.9284 -13.566 23.632
head 0.478231 -6.62783 9.25259
rclavicle -9.54166e-015 1.11319e-014
rhumerus 18.7834 5.87168 -54.4815
rradius 111.725
rwrist 3.66712
rhand 17.3403 5.84773
rfingers 7.12502
rthumb 42.0498 -18.7256
lclavicle -9.54166e-015 1.11319e-014
lhumerus 31.333 -24.7885 64.3119
lradius 95.5791
lwrist -0.482968
lhand -4.80014 21.8352
lfingers 7.12502
lthumb 20.9854 50.7199
rfemur -37.7806 -5.23109 14.813
rtibia 59.8271
rfoot -22.0749 -8.41887
rtoes -21.3129
lfemur -39.6377 -8.61631 -15.6923
ltibia 54.6812
lfoot -15.701 -1.72123
ltoes -17.04
3434
root 0.02187 14.7096 -1.9356 6.19462 8.72719 1.43739
lowerback 36.2202 1.02118 0.144405
upperback 7.51417 1.40238 -0.0588849
thorax -9.69971 0.680116 -0.694389
lowerneck -9.00606 -12.1801 -16.1595
upperneck -14.0985 -13.8019 23.846
head 0.469415 -6.76386 9.34017
rclavicle -1.09332e-014 -1.47101e-014
rhumerus 19.2532 5.98017 -54.4068
rradius 111.434
rwrist 3.83239
rhand 16.9569 5.82902
rfingers 7.12502
rthumb 41.6904 -18.8639
lclavicle -1.09332e-014 -1.47101e-014
lhumerus 31.1748 -24.6658 64.2349
lradius 95.5574
lwrist -0.727013
lhand -4.32999 21.5337
lfingers 7.12502
lthumb 21.437 50.3677
rfemur -37.748 -5.11815 14.8861
rtibia 59.6734
rfoot -22.0499 -8.60422
rtoes -21.6674
lfemur -39.5955 -8.59287 -15.6111
ltibia 54.6222
lfoot -15.6778 -1.67585
ltoes -16.8306
